<svg width="22" height="21" viewBox="0 0 22 21" fill="none" xmlns="http://www.w3.org/2000/svg">
<path d="M6.75 20.63C6.47 20.63 6.17998 20.56 5.91998 20.42C5.34998 20.12 5 19.52 5 18.88V17.4601C1.98 17.1501 0 14.93 0 11.75V5.75C0 2.31 2.31 0 5.75 0H15.75C19.19 0 21.5 2.31 21.5 5.75V11.75C21.5 15.19 19.19 17.5 15.75 17.5H11.98L7.71997 20.3401C7.42997 20.5301 7.09 20.63 6.75 20.63ZM5.75 1.48999C3.17 1.48999 1.5 3.15999 1.5 5.73999V11.7401C1.5 14.3201 3.17 15.9901 5.75 15.9901C6.16 15.9901 6.5 16.3301 6.5 16.7401V18.8701C6.5 19.0001 6.58 19.0601 6.63 19.0901C6.68001 19.1201 6.78001 19.1501 6.89001 19.0801L11.34 16.1201C11.46 16.0401 11.61 15.9901 11.76 15.9901H15.76C18.34 15.9901 20.01 14.3201 20.01 11.7401V5.73999C20.01 3.15999 18.34 1.48999 15.76 1.48999H5.75Z" fill="#9197B3"/>
<path d="M10.9998 10.1099C10.5898 10.1099 10.2498 9.7699 10.2498 9.3599V9.1499C10.2498 7.9899 11.0998 7.41989 11.4198 7.19989C11.7898 6.94989 11.9098 6.7799 11.9098 6.5199C11.9098 6.0199 11.4998 5.60986 10.9998 5.60986C10.4998 5.60986 10.0898 6.0199 10.0898 6.5199C10.0898 6.9299 9.7498 7.2699 9.3398 7.2699C8.92984 7.2699 8.58984 6.9299 8.58984 6.5199C8.58984 5.1899 9.6698 4.10986 10.9998 4.10986C12.3298 4.10986 13.4098 5.1899 13.4098 6.5199C13.4098 7.6599 12.5698 8.2299 12.2598 8.4399C11.8698 8.6999 11.7498 8.8699 11.7498 9.1499V9.3599C11.7498 9.7799 11.4098 10.1099 10.9998 10.1099Z" fill="#9197B3"/>
<path d="M11 12.6001C10.58 12.6001 10.25 12.2601 10.25 11.8501C10.25 11.4401 10.59 11.1001 11 11.1001C11.41 11.1001 11.75 11.4401 11.75 11.8501C11.75 12.2601 11.42 12.6001 11 12.6001Z" fill="#9197B3"/>
</svg>
